<svg version="1.1" preserveAspectRatio="none" xmlns="http://www.w3.org/2000/svg" width="500" height="500" viewBox="0 0 500 500"><rect width="100%" height="100%" fill="#1E1F22" fill-opacity="1"/><svg viewBox="27.4485 211.6 406.0973 76.8" width="333" height="62.97604047108907" x="83.5px" y="218.512px" xmlns="http://www.w3.org/2000/svg" xmlns:xlink="http://www.w3.org/1999/xlink" preserveAspectRatio="none"><defs></defs><style>.companyName {fill:#EBE7D9;fill-opacity:1;}.icon3 {fill:#F55139;fill-opacity:1;}.icon3-str {stroke:#F55139;stroke-opacity:1;}</style><g opacity="1" transform="rotate(0 27.4485 267.6)">
<svg width="347.5989" height="20.8" x="27.4485" y="267.6" version="1.1" preserveAspectRatio="none" viewBox="0.16 -30.28 639.72 38.28">
  <g transform="matrix(1 0 0 1 0 0)" class="icon3"><path id="id-6izo4zJp28" d="M9.76 0L9.76-24.52L0.16-24.52L0.16-28L23.32-28L23.32-24.52L13.72-24.52L13.72 0L9.76 0Z M39.64-21.40Q43.68-21.40 46.06-19.06Q48.44-16.72 48.44-12.20L48.44-12.20L48.44 0L44.60 0L44.60-11.76Q44.60-14.84 43.12-16.40Q41.64-17.96 38.88-17.96L38.88-17.96Q35.76-17.96 33.96-16.14Q32.16-14.32 32.16-10.92L32.16-10.92L32.16 0L28.32 0L28.32-29.68L32.16-29.68L32.16-18.20Q33.36-19.72 35.30-20.56Q37.24-21.40 39.64-21.40L39.64-21.40Z M76.04-10.48Q76.04-10.04 75.96-9.32L75.96-9.32L58.76-9.32Q59.12-6.52 61.22-4.82Q63.32-3.12 66.44-3.12L66.44-3.12Q70.24-3.12 72.56-5.68L72.56-5.68L74.68-3.20Q73.24-1.52 71.10-0.64Q68.96 0.24 66.32 0.24L66.32 0.24Q62.96 0.24 60.36-1.14Q57.76-2.52 56.34-5Q54.92-7.48 54.92-10.60L54.92-10.60Q54.92-13.68 56.30-16.16Q57.68-18.64 60.10-20.02Q62.52-21.40 65.56-21.40L65.56-21.40Q68.60-21.40 70.98-20.02Q73.36-18.64 74.70-16.16Q76.04-13.68 76.04-10.48L76.04-10.48ZM65.56-18.16Q62.80-18.16 60.94-16.48Q59.08-14.80 58.76-12.08L58.76-12.08L72.36-12.08Q72.04-14.76 70.18-16.46Q68.32-18.16 65.56-18.16L65.56-18.16Z M105.76-21.40Q108.84-21.40 111.28-20.04Q113.72-18.68 115.10-16.24Q116.48-13.80 116.48-10.60L116.48-10.60Q116.48-7.40 115.10-4.94Q113.72-2.48 111.28-1.12Q108.84 0.24 105.76 0.24L105.76 0.24Q103.48 0.24 101.58-0.64Q99.68-1.52 98.36-3.20L98.36-3.20L98.36 7.76L94.52 7.76L94.52-21.20L98.20-21.20L98.20-17.84Q99.48-19.60 101.44-20.50Q103.40-21.40 105.76-21.40L105.76-21.40ZM105.44-3.12Q107.48-3.12 109.10-4.06Q110.72-5 111.66-6.70Q112.60-8.40 112.60-10.60L112.60-10.60Q112.60-12.80 111.66-14.50Q110.72-16.20 109.10-17.12Q107.48-18.04 105.44-18.04L105.44-18.04Q103.44-18.04 101.82-17.10Q100.20-16.16 99.26-14.48Q98.32-12.80 98.32-10.60L98.32-10.60Q98.32-8.40 99.24-6.70Q100.16-5 101.80-4.06Q103.44-3.12 105.44-3.12L105.44-3.12Z M134.32-21.40Q138.36-21.40 140.74-19.06Q143.12-16.72 143.12-12.20L143.12-12.20L143.12 0L139.28 0L139.28-11.76Q139.28-14.84 137.80-16.40Q136.32-17.96 133.56-17.96L133.56-17.96Q130.44-17.96 128.64-16.14Q126.84-14.32 126.84-10.92L126.84-10.92L126.84 0L123.00 0L123.00-29.68L126.84-29.68L126.84-18.20Q128.04-19.72 129.98-20.56Q131.92-21.40 134.32-21.40L134.32-21.40Z M160.64 0.24Q157.48 0.24 154.96-1.16Q152.44-2.56 151.02-5.02Q149.60-7.48 149.60-10.60L149.60-10.60Q149.60-13.72 151.02-16.18Q152.44-18.64 154.96-20.02Q157.48-21.40 160.64-21.40L160.64-21.40Q163.80-21.40 166.30-20.02Q168.80-18.64 170.22-16.18Q171.64-13.72 171.64-10.60L171.64-10.60Q171.64-7.48 170.22-5.02Q168.80-2.56 166.30-1.16Q163.80 0.24 160.64 0.24L160.64 0.24ZM160.64-3.12Q162.68-3.12 164.30-4.06Q165.92-5 166.84-6.70Q167.76-8.40 167.76-10.60L167.76-10.60Q167.76-12.80 166.84-14.50Q165.92-16.20 164.30-17.12Q162.68-18.04 160.64-18.04L160.64-18.04Q158.60-18.04 156.98-17.12Q155.36-16.20 154.42-14.50Q153.48-12.80 153.48-10.60L153.48-10.60Q153.48-8.40 154.42-6.70Q155.36-5 156.98-4.06Q158.60-3.12 160.64-3.12L160.64-3.12Z M189.48-21.40Q193.52-21.40 195.90-19.06Q198.28-16.72 198.28-12.20L198.28-12.20L198.28 0L194.44 0L194.44-11.76Q194.44-14.84 192.96-16.40Q191.48-17.96 188.72-17.96L188.72-17.96Q185.60-17.96 183.80-16.14Q182-14.32 182-10.92L182-10.92L182 0L178.16 0L178.16-21.20L181.84-21.20L181.84-18Q183-19.64 184.98-20.52Q186.96-21.40 189.48-21.40L189.48-21.40Z M225.88-10.48Q225.88-10.04 225.80-9.32L225.80-9.32L208.60-9.32Q208.96-6.52 211.06-4.82Q213.16-3.12 216.28-3.12L216.28-3.12Q220.08-3.12 222.40-5.68L222.40-5.68L224.52-3.20Q223.08-1.52 220.94-0.64Q218.80 0.24 216.16 0.24L216.16 0.24Q212.80 0.24 210.20-1.14Q207.60-2.52 206.18-5Q204.76-7.48 204.76-10.60L204.76-10.60Q204.76-13.68 206.14-16.16Q207.52-18.64 209.94-20.02Q212.36-21.40 215.40-21.40L215.40-21.40Q218.44-21.40 220.82-20.02Q223.20-18.64 224.54-16.16Q225.88-13.68 225.88-10.48L225.88-10.48ZM215.40-18.16Q212.64-18.16 210.78-16.48Q208.92-14.80 208.60-12.08L208.60-12.08L222.20-12.08Q221.88-14.76 220.02-16.46Q218.16-18.16 215.40-18.16L215.40-18.16Z M259.36-21.20L263.12-21.20L252.84 2.12Q251.48 5.36 249.66 6.68Q247.84 8 245.28 8L245.28 8Q243.72 8 242.26 7.50Q240.80 7 239.84 6.04L239.84 6.04L241.48 3.16Q243.12 4.72 245.28 4.72L245.28 4.72Q246.68 4.72 247.62 3.98Q248.56 3.24 249.32 1.44L249.32 1.44L250.00-0.04L240.64-21.20L244.64-21.20L252.04-4.24L259.36-21.20Z M276.40 0.24Q273.24 0.24 270.72-1.16Q268.20-2.56 266.78-5.02Q265.36-7.48 265.36-10.60L265.36-10.60Q265.36-13.72 266.78-16.18Q268.20-18.64 270.72-20.02Q273.24-21.40 276.40-21.40L276.40-21.40Q279.56-21.40 282.06-20.02Q284.56-18.64 285.98-16.18Q287.40-13.72 287.40-10.60L287.40-10.60Q287.40-7.48 285.98-5.02Q284.56-2.56 282.06-1.16Q279.56 0.24 276.40 0.24L276.40 0.24ZM276.40-3.12Q278.44-3.12 280.06-4.06Q281.68-5 282.60-6.70Q283.52-8.40 283.52-10.60L283.52-10.60Q283.52-12.80 282.60-14.50Q281.68-16.20 280.06-17.12Q278.44-18.04 276.40-18.04L276.40-18.04Q274.36-18.04 272.74-17.12Q271.12-16.20 270.18-14.50Q269.24-12.80 269.24-10.60L269.24-10.60Q269.24-8.40 270.18-6.70Q271.12-5 272.74-4.06Q274.36-3.12 276.40-3.12L276.40-3.12Z M309.84-21.20L313.68-21.20L313.68 0L310.04 0L310.04-3.20Q308.88-1.56 306.98-0.66Q305.08 0.24 302.84 0.24L302.84 0.24Q298.60 0.24 296.16-2.10Q293.72-4.44 293.72-9L293.72-9L293.72-21.20L297.56-21.20L297.56-9.44Q297.56-6.36 299.04-4.78Q300.52-3.20 303.28-3.20L303.28-3.20Q306.32-3.20 308.08-5.04Q309.84-6.88 309.84-10.24L309.84-10.24L309.84-21.20Z M341.88-21.40Q346.28-21.40 348.62-19.24Q350.96-17.08 350.96-12.80L350.96-12.80L350.96 0L347.32 0L347.32-2.80Q346.36-1.32 344.58-0.54Q342.80 0.24 340.36 0.24L340.36 0.24Q336.80 0.24 334.66-1.48Q332.52-3.20 332.52-6L332.52-6Q332.52-8.80 334.56-10.50Q336.60-12.20 341.04-12.20L341.04-12.20L347.12-12.20L347.12-12.96Q347.12-15.44 345.68-16.76Q344.24-18.08 341.44-18.08L341.44-18.08Q339.56-18.08 337.76-17.46Q335.96-16.84 334.72-15.80L334.72-15.80L333.12-18.68Q334.76-20 337.04-20.70Q339.32-21.40 341.88-21.40L341.88-21.40ZM341.00-2.72Q343.20-2.72 344.80-3.70Q346.40-4.68 347.12-6.48L347.12-6.48L347.12-9.44L341.20-9.44Q336.32-9.44 336.32-6.16L336.32-6.16Q336.32-4.56 337.56-3.64Q338.80-2.72 341.00-2.72L341.00-2.72Z M359.28 0L359.28-29.68L363.12-29.68L363.12 0L359.28 0Z M400.28-21.20L403.72-21.20L395.80 0L392.12 0L386.00-16.08L379.80 0L376.12 0L368.24-21.20L371.88-21.20L378.04-4.32L384.44-21.20L387.68-21.20L393.96-4.24L400.28-21.20Z M415.84-21.40Q420.24-21.40 422.58-19.24Q424.92-17.08 424.92-12.80L424.92-12.80L424.92 0L421.28 0L421.28-2.80Q420.32-1.32 418.54-0.54Q416.76 0.24 414.32 0.24L414.32 0.24Q410.76 0.24 408.62-1.48Q406.48-3.20 406.48-6L406.48-6Q406.48-8.80 408.52-10.50Q410.56-12.20 415.00-12.20L415.00-12.20L421.08-12.20L421.08-12.96Q421.08-15.44 419.64-16.76Q418.20-18.08 415.40-18.08L415.40-18.08Q413.52-18.08 411.72-17.46Q409.92-16.84 408.68-15.80L408.68-15.80L407.08-18.68Q408.72-20 411.00-20.70Q413.28-21.40 415.84-21.40L415.84-21.40ZM414.96-2.72Q417.16-2.72 418.76-3.70Q420.36-4.68 421.08-6.48L421.08-6.48L421.08-9.44L415.16-9.44Q410.28-9.44 410.28-6.16L410.28-6.16Q410.28-4.56 411.52-3.64Q412.76-2.72 414.96-2.72L414.96-2.72Z M447.84-21.20L451.60-21.20L441.32 2.12Q439.96 5.36 438.14 6.68Q436.32 8 433.76 8L433.76 8Q432.20 8 430.74 7.50Q429.28 7 428.32 6.04L428.32 6.04L429.96 3.16Q431.60 4.72 433.76 4.72L433.76 4.72Q435.16 4.72 436.10 3.98Q437.04 3.24 437.80 1.44L437.80 1.44L438.48-0.04L429.12-21.20L433.12-21.20L440.52-4.24L447.84-21.20Z M462.20 0.24Q459.60 0.24 457.20-0.46Q454.80-1.16 453.44-2.24L453.44-2.24L455.04-5.28Q456.44-4.28 458.44-3.68Q460.44-3.08 462.48-3.08L462.48-3.08Q467.52-3.08 467.52-5.96L467.52-5.96Q467.52-6.92 466.84-7.48Q466.16-8.04 465.14-8.30Q464.12-8.56 462.24-8.88L462.24-8.88Q459.68-9.28 458.06-9.80Q456.44-10.32 455.28-11.56Q454.12-12.80 454.12-15.04L454.12-15.04Q454.12-17.92 456.52-19.66Q458.92-21.40 462.96-21.40L462.96-21.40Q465.08-21.40 467.20-20.88Q469.32-20.36 470.68-19.48L470.68-19.48L469.04-16.44Q466.44-18.12 462.92-18.12L462.92-18.12Q460.48-18.12 459.20-17.32Q457.92-16.52 457.92-15.20L457.92-15.20Q457.92-14.16 458.64-13.56Q459.36-12.96 460.42-12.68Q461.48-12.40 463.40-12.04L463.40-12.04Q465.96-11.60 467.54-11.10Q469.12-10.60 470.24-9.40Q471.36-8.20 471.36-6.04L471.36-6.04Q471.36-3.16 468.90-1.46Q466.44 0.24 462.20 0.24L462.20 0.24Z M505.48-29.68L509.32-29.68L509.32 0L505.64 0L505.64-3.36Q504.36-1.60 502.40-0.68Q500.44 0.24 498.08 0.24L498.08 0.24Q495.00 0.24 492.56-1.12Q490.12-2.48 488.74-4.94Q487.36-7.40 487.36-10.60L487.36-10.60Q487.36-13.80 488.74-16.24Q490.12-18.68 492.56-20.04Q495.00-21.40 498.08-21.40L498.08-21.40Q500.36-21.40 502.28-20.54Q504.20-19.68 505.48-18L505.48-18L505.48-29.68ZM498.40-3.12Q500.40-3.12 502.04-4.06Q503.68-5 504.60-6.70Q505.52-8.40 505.52-10.60L505.52-10.60Q505.52-12.80 504.60-14.50Q503.68-16.20 502.04-17.12Q500.40-18.04 498.40-18.04L498.40-18.04Q496.36-18.04 494.74-17.12Q493.12-16.20 492.18-14.50Q491.24-12.80 491.24-10.60L491.24-10.60Q491.24-8.40 492.18-6.70Q493.12-5 494.74-4.06Q496.36-3.12 498.40-3.12L498.40-3.12Z M536.96-10.48Q536.96-10.04 536.88-9.32L536.88-9.32L519.68-9.32Q520.04-6.52 522.14-4.82Q524.24-3.12 527.36-3.12L527.36-3.12Q531.16-3.12 533.48-5.68L533.48-5.68L535.60-3.20Q534.16-1.52 532.02-0.64Q529.88 0.24 527.24 0.24L527.24 0.24Q523.88 0.24 521.28-1.14Q518.68-2.52 517.26-5Q515.84-7.48 515.84-10.60L515.84-10.60Q515.84-13.68 517.22-16.16Q518.60-18.64 521.02-20.02Q523.44-21.40 526.48-21.40L526.48-21.40Q529.52-21.40 531.90-20.02Q534.28-18.64 535.62-16.16Q536.96-13.68 536.96-10.48L536.96-10.48ZM526.48-18.16Q523.72-18.16 521.86-16.48Q520-14.80 519.68-12.08L519.68-12.08L533.28-12.08Q532.96-14.76 531.10-16.46Q529.24-18.16 526.48-18.16L526.48-18.16Z M549.56 0.24Q546.96 0.24 544.56-0.46Q542.16-1.16 540.80-2.24L540.80-2.24L542.40-5.28Q543.80-4.28 545.80-3.68Q547.80-3.08 549.84-3.08L549.84-3.08Q554.88-3.08 554.88-5.96L554.88-5.96Q554.88-6.92 554.20-7.48Q553.52-8.04 552.50-8.30Q551.48-8.56 549.60-8.88L549.60-8.88Q547.04-9.28 545.42-9.80Q543.80-10.32 542.64-11.56Q541.48-12.80 541.48-15.04L541.48-15.04Q541.48-17.92 543.88-19.66Q546.28-21.40 550.32-21.40L550.32-21.40Q552.44-21.40 554.56-20.88Q556.68-20.36 558.04-19.48L558.04-19.48L556.40-16.44Q553.80-18.12 550.28-18.12L550.28-18.12Q547.84-18.12 546.56-17.32Q545.28-16.52 545.28-15.20L545.28-15.20Q545.28-14.16 546-13.56Q546.72-12.96 547.78-12.68Q548.84-12.40 550.76-12.04L550.76-12.04Q553.32-11.60 554.90-11.10Q556.48-10.60 557.60-9.40Q558.72-8.20 558.72-6.04L558.72-6.04Q558.72-3.16 556.26-1.46Q553.80 0.24 549.56 0.24L549.56 0.24Z M564.72 0L564.72-21.20L568.56-21.20L568.56 0L564.72 0ZM566.64-25.28Q565.52-25.28 564.78-26Q564.04-26.72 564.04-27.76L564.04-27.76Q564.04-28.80 564.78-29.54Q565.52-30.28 566.64-30.28L566.64-30.28Q567.76-30.28 568.50-29.58Q569.24-28.88 569.24-27.84L569.24-27.84Q569.24-26.76 568.50-26.02Q567.76-25.28 566.64-25.28L566.64-25.28Z M580.76-17.64Q581.76-19.48 583.72-20.44Q585.68-21.40 588.48-21.40L588.48-21.40L588.48-17.68Q588.16-17.72 587.60-17.72L587.60-17.72Q584.48-17.72 582.70-15.86Q580.92-14 580.92-10.56L580.92-10.56L580.92 0L577.08 0L577.08-21.20L580.76-21.20L580.76-17.64Z M613.36-10.48Q613.36-10.04 613.28-9.32L613.28-9.32L596.08-9.32Q596.44-6.52 598.54-4.82Q600.64-3.12 603.76-3.12L603.76-3.12Q607.56-3.12 609.88-5.68L609.88-5.68L612.00-3.20Q610.56-1.52 608.42-0.64Q606.28 0.24 603.64 0.24L603.64 0.24Q600.28 0.24 597.68-1.14Q595.08-2.52 593.66-5Q592.24-7.48 592.24-10.60L592.24-10.60Q592.24-13.68 593.62-16.16Q595.00-18.64 597.42-20.02Q599.84-21.40 602.88-21.40L602.88-21.40Q605.92-21.40 608.30-20.02Q610.68-18.64 612.02-16.16Q613.36-13.68 613.36-10.48L613.36-10.48ZM602.88-18.16Q600.12-18.16 598.26-16.48Q596.40-14.80 596.08-12.08L596.08-12.08L609.68-12.08Q609.36-14.76 607.50-16.46Q605.64-18.16 602.88-18.16L602.88-18.16Z M636.04-29.68L639.88-29.68L639.88 0L636.20 0L636.20-3.36Q634.92-1.60 632.96-0.68Q631.00 0.24 628.64 0.24L628.64 0.24Q625.56 0.24 623.12-1.12Q620.68-2.48 619.30-4.94Q617.92-7.40 617.92-10.60L617.92-10.60Q617.92-13.80 619.30-16.24Q620.68-18.68 623.12-20.04Q625.56-21.40 628.64-21.40L628.64-21.40Q630.92-21.40 632.84-20.54Q634.76-19.68 636.04-18L636.04-18L636.04-29.68ZM628.96-3.12Q630.96-3.12 632.60-4.06Q634.24-5 635.16-6.70Q636.08-8.40 636.08-10.60L636.08-10.60Q636.08-12.80 635.16-14.50Q634.24-16.20 632.60-17.12Q630.96-18.04 628.96-18.04L628.96-18.04Q626.92-18.04 625.30-17.12Q623.68-16.20 622.74-14.50Q621.80-12.80 621.80-10.60L621.80-10.60Q621.80-8.40 622.74-6.70Q623.68-5 625.30-4.06Q626.92-3.12 628.96-3.12L628.96-3.12Z"/></g>
</svg>
</g><g opacity="1" transform="rotate(0 77.4682 211.6)">
<svg width="356.0776" height="40" x="77.4682" y="211.6" version="1.1" preserveAspectRatio="none" viewBox="1.16 -28.48 257.79999999999995 28.96">
  <g transform="matrix(1 0 0 1 0 0)" class="companyName"><path id="id-D6z1nYkh9" d="M18.08-28Q23.32-28 26.18-25.70Q29.04-23.40 29.04-19.28L29.04-19.28Q29.04-15.76 27.38-13.14Q25.72-10.52 22.66-9.12Q19.60-7.72 15.44-7.72L15.44-7.72L9.20-7.72L7.68 0L1.16 0L6.76-28L18.08-28ZM15.72-13Q18.96-13 20.72-14.48Q22.48-15.96 22.48-18.72L22.48-18.72Q22.48-20.72 21.14-21.72Q19.80-22.72 17.28-22.72L17.28-22.72L12.20-22.72L10.24-13L15.72-13Z M54.84-28L61.32-28L55.72 0L49.24 0L51.52-11.40L38.84-11.40L36.56 0L30.04 0L35.64-28L42.16-28L39.96-17L52.64-17L54.84-28Z M76.88 0.48Q72.68 0.48 69.60-1.04Q66.52-2.56 64.88-5.32Q63.24-8.08 63.24-11.68L63.24-11.68Q63.24-16.44 65.42-20.26Q67.60-24.08 71.54-26.28Q75.48-28.48 80.56-28.48L80.56-28.48Q84.76-28.48 87.84-26.96Q90.92-25.44 92.56-22.68Q94.20-19.92 94.20-16.32L94.20-16.32Q94.20-11.56 92.02-7.74Q89.84-3.92 85.90-1.72Q81.96 0.48 76.88 0.48L76.88 0.48ZM77.44-5.04Q80.52-5.04 82.84-6.52Q85.16-8 86.40-10.48Q87.64-12.96 87.64-15.96L87.64-15.96Q87.64-19.16 85.64-21.06Q83.64-22.96 80-22.96L80-22.96Q76.92-22.96 74.60-21.48Q72.28-20 71.04-17.52Q69.80-15.04 69.80-12.04L69.80-12.04Q69.80-8.84 71.80-6.94Q73.80-5.04 77.44-5.04L77.44-5.04Z M121-28L127.40-28L121.80 0L116.48 0L106.04-17.52L102.52 0L96.12 0L101.72-28L107.08-28L117.52-10.44L121-28Z M154.12-22.80L139.44-22.80L138.24-16.72L151.24-16.72L150.24-11.68L137.20-11.68L135.92-5.20L151.20-5.20L150.12 0L128.44 0L134.04-28L155.20-28L154.12-22.80Z M191.40-28L197.88-28L192.28 0L185.80 0L188.08-11.40L175.40-11.40L173.12 0L166.60 0L172.20-28L178.72-28L176.52-17L189.20-17L191.40-28Z M212.12 0.48Q206.84 0.48 203.84-2.14Q200.84-4.76 200.84-9.32L200.84-9.32Q200.84-10.64 201.16-12.32L201.16-12.32L204.28-28L210.80-28L207.68-12.44Q207.44-11.12 207.44-10.08L207.44-10.08Q207.44-7.56 208.82-6.30Q210.20-5.04 212.84-5.04L212.84-5.04Q215.80-5.04 217.56-6.80Q219.32-8.56 220.12-12.44L220.12-12.44L223.24-28L229.60-28L226.44-12.04Q223.88 0.48 212.12 0.48L212.12 0.48Z M253.96-14.44Q255.76-13.72 256.74-12.30Q257.72-10.88 257.72-8.84L257.72-8.84Q257.72-4.48 254.28-2.24Q250.84 0 245.12 0L245.12 0L230.44 0L236.04-28L249.56-28Q254.08-28 256.52-26.34Q258.96-24.68 258.96-21.60L258.96-21.60Q258.96-19.04 257.62-17.22Q256.28-15.40 253.96-14.44L253.96-14.44ZM248.04-23.12L241.48-23.12L240.16-16.52L246.76-16.52Q249.32-16.52 250.74-17.54Q252.16-18.56 252.16-20.48L252.16-20.48Q252.16-23.12 248.04-23.12L248.04-23.12ZM245.52-4.88Q248.24-4.88 249.76-5.92Q251.28-6.96 251.28-8.92L251.28-8.92Q251.28-11.80 247.08-11.80L247.08-11.80L239.24-11.80L237.88-4.88L245.52-4.88Z"/></g>
</svg>
</g><g opacity="1" transform="rotate(0 27.4485 211.6)">
<svg width="50.0197" height="40" x="27.4485" y="211.6" version="1.1" preserveAspectRatio="none" viewBox="-4.6 -33.68 47.12 37.68">
  <g transform="matrix(1 0 0 1 0 0)" class="icon3"><path id="id-hTdFi603-2" d="M-4.60 4L15.88-33.68L24.12-33.68L3.64 4L-4.60 4Z M13.80 4L34.28-33.68L42.52-33.68L22.04 4L13.80 4Z"/></g>
</svg>
</g></svg></svg>